<svg width="753" height="501" viewBox="0 0 753 501" fill="none" xmlns="http://www.w3.org/2000/svg">
<path d="M291.153 285.126L477.731 284.944L477.707 263.596L291.138 263.77L291.153 285.126Z" fill="#D97C48"/>
<path d="M387.796 23.8345C415.163 23.8347 438.496 41.0951 447.512 65.3237C452.668 64.052 458.059 63.3765 463.607 63.3765C500.607 63.3765 530.6 93.3731 530.601 130.375C530.601 162.866 507.475 189.955 476.787 196.078V247.9H292.28V196.318C274.451 185.027 262.612 165.126 262.612 142.459C262.612 107.817 290.262 79.6323 324.695 78.7749C328.965 47.739 355.589 23.8345 387.796 23.8345ZM399.581 150.153C396.274 150.772 392.876 151.136 389.41 151.222C388.082 160.875 384.593 169.837 379.445 177.605H416.091C408.55 170.017 402.814 160.634 399.581 150.153Z" fill="#D97C48"/>
<path d="M385.403 1.00003C422.171 0.969283 453.411 24.7074 464.573 57.701C497.528 61.4216 523.158 89.3647 523.196 123.304C523.219 149.517 507.975 172.164 485.867 182.88L409.986 116.109C416.113 106.715 419.934 88.2577 411.247 78.5795C402.545 68.8859 384.618 50.5442 377.139 42.2113C376.17 41.135 373.595 39.5592 371.012 41.873C368.437 44.1946 369.721 46.9235 370.681 47.9997L403.99 85.0983C404.928 86.6819 406.312 90.2872 404.382 92.0245C402.445 93.7541 399.547 91.5094 398.34 90.1642L362.141 49.837C360.934 48.4917 357.713 46.5315 354.484 49.4219C351.256 52.32 352.87 55.7254 354.077 57.0707L393.167 100.626C394.066 101.618 395.365 103.909 394.012 105.623C392.167 106.784 390.03 105.239 389.131 104.239L350.034 60.6913C348.827 59.3538 345.613 57.3858 342.385 60.2762C339.156 63.1743 340.763 66.5874 341.97 67.9327L378.169 108.252C379.376 109.597 381.305 112.718 379.368 114.456C377.431 116.193 373.995 114.425 372.526 113.318L339.218 76.2195C338.249 75.1433 335.674 73.5751 333.091 75.889C330.516 78.2105 331.799 80.9395 332.768 82.008C340.248 90.3487 356.552 110.136 365.262 119.837C373.949 129.507 392.713 127.701 402.722 122.627L470.17 218.326L470.193 239.304L426.414 239.342L351.748 167.521C357.982 155.744 362.848 134.988 346.974 117.308C324.397 92.1552 296.115 91.4787 284.984 100.173L284.954 100.142C284.823 100.265 284.692 100.388 284.561 100.511C284.423 100.634 284.285 100.749 284.146 100.865L284.177 100.903C274.33 111.02 271.954 139.193 294.532 164.346C310.36 181.98 331.454 179.444 343.853 174.547L391.791 239.381L286.991 239.489L286.96 205.411C253.52 198.454 228.383 168.851 228.345 133.351C228.306 92.6625 261.277 59.6382 301.988 59.5998C303.249 59.5998 304.502 59.6305 305.747 59.692C316.287 25.7222 347.95 1.03847 385.403 1.00003Z" fill="#FEF9EC"/>
<path d="M485.867 182.88C507.975 172.164 523.219 149.517 523.196 123.304C523.158 89.3647 497.528 61.4216 464.573 57.701C453.411 24.7074 422.171 0.969283 385.403 1.00003C347.95 1.03847 316.287 25.7221 305.747 59.692C304.502 59.6305 303.249 59.5998 301.988 59.5998C261.277 59.6382 228.306 92.6625 228.345 133.351C228.383 168.851 253.52 198.454 286.96 205.411L286.991 239.489L391.791 239.381" stroke="#D97C48" stroke-width="0.5"/>
<path d="M471.771 278.986L285.694 279.167L285.68 258.31L471.749 258.137L471.771 278.986Z" fill="#FEF9EC" stroke="#D97C48" stroke-width="0.5"/>
<path d="M81.0308 330.121C75.5154 332.5 69.5689 335.325 63.1914 338.565C56.8435 341.821 50.4064 345.419 43.8653 349.388C44.9654 351.603 46.2142 353.759 47.6116 355.87C48.9942 358.01 50.4213 360.166 51.8931 362.351C53.6324 364.997 54.0487 367.673 53.1418 370.379C52.2201 373.07 50.0199 375.27 46.5412 376.98C44.5194 378.05 42.2895 378.243 39.8812 377.574C37.5026 376.89 35.1835 374.854 32.9238 371.449C30.3074 367.525 28.1964 363.838 26.6206 360.389C24.8664 361.608 23.1865 362.797 21.5661 363.957C19.9308 365.146 18.2509 366.306 16.5116 367.465C13.6573 369.324 10.8922 369.903 8.24599 369.19C5.58495 368.506 3.39963 366.529 1.70488 363.243C0.827775 361.489 0.292594 360.032 0.0993343 358.843C-0.108794 357.654 0.0101354 356.598 0.456122 355.691C0.88724 354.814 1.60082 353.982 2.59685 353.194C3.62262 352.391 4.85651 351.529 6.28366 350.577C8.90011 349.031 11.3679 347.455 13.7167 345.88C16.0507 344.289 18.4888 342.758 21.0309 341.241C20.9417 340.929 20.912 340.736 20.912 340.647C20.9417 340.528 20.9417 340.29 20.912 339.933C20.3917 336.127 20.2579 332.664 20.4957 329.527C20.7336 326.405 21.4472 323.402 22.6364 320.548C23.8257 317.693 25.5056 314.869 27.6909 312.044C29.906 309.19 32.7157 306.202 36.1349 303.065C38.3946 300.969 40.684 298.888 43.0328 296.821C45.4114 294.77 47.9684 292.748 50.7038 290.756L49.6929 290.042C47.79 288.704 46.6304 286.92 46.2439 284.69C45.8425 282.475 46.6156 280.156 48.563 277.733C50.5402 275.325 52.4877 273.808 54.3906 273.214C56.3232 272.619 58.0923 272.768 59.6829 273.63C61.0209 274.344 62.3588 275.161 63.6671 276.068C64.9753 277.019 66.3132 278.06 67.7107 279.16C71.115 276.99 74.7275 274.804 78.5332 272.619C82.3687 270.449 86.442 268.189 90.7235 265.84C93.4589 264.383 95.778 263.937 97.6809 264.532C99.6135 265.097 101.308 266.479 102.735 268.694C105.144 272.262 105.798 275.221 104.698 277.555C103.583 279.904 100.981 282.074 96.9078 284.096C94.7968 285.136 92.5372 286.341 90.1289 287.723C87.7057 289.076 85.1933 290.488 82.5768 291.945C83.3647 292.867 84.1973 293.714 85.0743 294.502C85.9366 295.305 86.7988 296.108 87.6313 296.94C91.8682 301.103 94.7671 304.789 96.3132 308.001C97.889 311.212 98.335 314.125 97.6214 316.742C96.9078 319.358 95.0942 321.722 92.2101 323.818C89.3112 325.929 85.5798 328.025 81.0308 330.121ZM144.361 387.148C142.844 389.125 141.15 390.493 139.247 391.251C137.344 392.039 134.757 391.489 131.516 389.586C130.401 388.947 129.138 388.189 127.711 387.326C126.283 386.449 124.99 385.632 123.845 384.888C120.872 392.455 117.423 398.892 113.498 404.214C109.574 409.522 105.471 413.744 101.189 416.88C98.0525 419.095 94.5292 420.419 90.6046 420.865C86.7096 421.296 82.6512 420.582 78.4143 418.724C74.1626 416.895 69.9109 413.907 65.6294 409.745C61.3479 405.582 57.2151 400.111 53.2607 393.332C51.7444 390.716 51.4322 388.114 52.3093 385.543C53.2161 382.956 55.0447 380.726 57.7801 378.823C60.4708 377.113 62.9535 376.474 65.2132 376.92C67.4728 377.351 69.3905 378.823 70.9812 381.321C72.3192 383.61 73.6571 385.988 74.9654 388.456C76.3033 390.909 77.7899 393.005 79.4252 394.76C81.0456 396.499 82.8742 397.644 84.896 398.208C86.9475 398.803 89.3112 398.476 91.9723 397.257C93.1615 396.618 94.3508 395.592 95.5401 394.165C96.7592 392.767 98.0079 391.013 99.2864 388.873C100.55 386.762 101.739 384.353 102.854 381.618C103.999 378.882 105.025 376.028 105.946 373.055C100.832 369.279 95.9267 365.577 91.2587 361.935C86.6204 358.323 81.9971 354.442 77.4034 350.28C74.6234 347.782 73.3003 345.434 73.4193 343.263C73.5382 341.048 74.3856 338.952 75.9763 336.96C76.7196 335.89 77.5967 334.923 78.5927 334.046C79.5739 333.184 80.6145 332.589 81.6849 332.262C82.785 331.95 83.9594 331.935 85.1933 332.203C86.4123 332.485 87.6611 333.199 88.9396 334.343C92.5074 337.644 96.0307 340.751 99.5243 343.679C103.003 346.608 106.749 349.566 110.763 352.54C110.912 351.544 111.031 350.637 111.12 349.804C111.194 348.972 111.254 348.035 111.298 347.009C111.61 342.178 112.696 338.669 114.569 336.484C116.472 334.269 119.296 332.619 123.072 331.549C125.481 330.924 129.197 330.419 134.192 330.062C139.217 329.675 144.554 329.497 150.188 329.527C146.62 326.791 142.131 323.878 136.749 320.785C131.397 317.664 125.57 314.824 119.267 312.282C115.966 311.063 113.632 309.353 112.25 307.168C110.897 304.953 111.135 301.98 112.963 298.248C114.108 295.87 115.758 294.19 117.899 293.194C120.069 292.213 122.537 292.183 125.272 293.134C129.108 294.368 133.241 296.152 137.641 298.486C142.042 300.835 146.323 303.362 150.485 306.098C154.678 308.803 158.632 311.554 162.319 314.363C166.035 317.188 169.053 319.804 171.358 322.213C173.528 324.517 174.807 327 175.163 329.646C175.55 332.262 175.193 334.7 174.093 336.96C173.023 339.19 171.328 341.093 169.038 342.668C166.779 344.244 164.133 345.136 161.13 345.344C155.897 345.701 150.902 346.013 146.145 346.296C141.387 346.563 137.403 347.143 134.192 348.02C132.364 348.451 131.308 349.269 131.041 350.458C130.758 351.677 130.565 353.253 130.446 355.156C130.282 356.851 130.119 358.56 129.97 360.27C129.807 361.965 129.584 363.66 129.316 365.325C131.457 366.707 133.731 368.134 136.154 369.606C138.607 371.063 140.912 372.416 143.052 373.65C145.981 375.344 147.393 377.426 147.274 379.893C147.155 382.346 146.174 384.769 144.361 387.148ZM75.9168 312.401C74.2518 310.543 72.5422 308.818 70.8028 307.228C69.0932 305.607 67.3241 304.016 65.5105 302.47C61.6601 305.131 58.0328 307.763 54.6284 310.379C51.2092 312.996 48.2657 315.493 45.7682 317.872C43.1518 320.458 41.3232 322.733 40.2975 324.71C39.3014 326.658 38.7811 328.724 38.7514 330.894C45.129 327.416 51.4173 324.16 57.6017 321.142C63.786 318.095 69.8811 315.181 75.9168 312.401Z" fill="#D97C48"/>
<path d="M232.091 392.958C231.214 395.694 229.474 397.76 226.858 399.142C224.271 400.495 221.625 400.718 218.889 399.797C216.823 399.172 215.173 398.102 213.954 396.586C212.72 395.084 211.962 393.315 211.694 391.293C210.773 394.504 209.91 397.656 209.078 400.748C208.275 403.84 207.532 406.873 206.818 409.846C205.986 413.176 204.454 415.168 202.239 415.793C200.009 416.432 197.571 416.328 194.925 415.495C192.383 414.707 190.421 413.503 189.038 411.868C187.685 410.248 187.403 407.795 188.206 404.494C189.038 401.164 189.96 397.76 191.001 394.266C192.071 390.743 193.112 387.175 194.152 383.563C191.848 385.629 189.648 387.725 187.552 389.866C185.485 392.007 183.508 394.177 181.605 396.348C179.227 399.083 176.789 400.362 174.291 400.153C171.793 399.96 169.564 398.711 167.631 396.407C165.996 394.593 165.089 392.587 164.896 390.401C164.732 388.186 166.263 385.629 169.474 382.73C177.16 375.922 186.303 369.38 196.888 363.107C195.014 362.631 193.216 362.155 191.476 361.68C189.722 361.174 187.998 360.758 186.303 360.431C182.973 359.717 181.025 358.275 180.475 356.09C179.955 353.875 180.148 351.511 181.07 349.014C181.902 346.724 183.107 345 184.697 343.84C186.318 342.696 188.89 342.532 192.428 343.365C196.665 344.435 201.169 345.728 205.926 347.23C206.357 346.249 206.729 345.238 207.056 344.197C207.413 343.171 207.799 342.205 208.245 341.283C209.435 338.161 211.01 336.259 213.002 335.575C215.024 334.861 217.433 334.965 220.257 335.872C222.903 336.705 225.014 337.998 226.56 339.737C228.107 341.447 228.181 343.93 226.798 347.17L224.122 353.89C227.527 355.198 230.574 356.491 233.28 357.755C236.759 359.465 238.721 361.145 239.167 362.81C239.598 364.445 239.479 366.303 238.81 368.399C238.409 369.633 237.859 370.822 237.145 371.967C236.432 373.082 235.569 373.974 234.588 374.643C233.637 375.327 232.507 375.713 231.199 375.832C229.89 375.922 228.404 375.52 226.739 374.643C225.431 373.974 224.033 373.335 222.576 372.74C221.149 372.146 219.663 371.491 218.116 370.778L214.192 382.968C215.574 381.348 217.254 380.233 219.246 379.638C221.223 379.043 223.245 379.073 225.312 379.698C228.047 380.619 230.069 382.373 231.377 384.99C232.715 387.577 232.953 390.223 232.091 392.958ZM300.772 412.463C296.164 423.047 290.307 430.54 283.171 434.94C276.065 439.341 267.442 440.5 257.304 438.389C251.595 437.244 246.838 435.208 243.032 432.264C239.226 429.291 236.387 425.649 234.529 421.323C232.656 417.012 231.704 412.017 231.674 406.338C231.63 400.674 232.477 394.549 234.231 387.963C235.733 382.061 237.413 376.457 239.286 371.135C241.189 365.783 243.211 360.609 245.351 355.614C246.496 352.686 248.102 350.798 250.168 349.965C252.219 349.103 254.895 349.311 258.196 350.619C263.191 352.522 265.48 355.54 265.094 359.658C269.97 359.108 275.53 359.331 281.803 360.312C288.255 361.353 293.577 363.092 297.74 365.545C301.902 368.013 304.816 371.358 306.481 375.594C308.146 379.802 308.503 384.93 307.551 390.996C306.63 397.061 304.37 404.227 300.772 412.463ZM238.87 443.563C237.799 446.922 235.659 449.42 232.447 451.055C229.236 452.72 225.936 453.017 222.576 451.947C219.246 450.877 216.749 448.736 215.084 445.525C213.419 442.358 213.121 439.088 214.192 435.713C215.218 432.383 217.343 429.886 220.555 428.221C223.766 426.556 227.036 426.258 230.366 427.329C233.726 428.399 236.253 430.54 237.918 433.751C239.583 436.962 239.895 440.233 238.87 443.563ZM283.052 477.101C283.647 480.386 283.067 482.928 281.327 484.712C279.618 486.526 277.551 487.7 275.143 488.221C272.363 488.771 269.851 488.577 267.591 487.626C265.361 486.704 263.979 484.861 263.429 482.096C262.745 477.606 261.882 473.057 260.812 468.419C259.771 463.781 258.686 459.276 257.542 454.92C256.739 452.096 257.081 449.747 258.552 447.844C260.054 445.971 262.135 444.752 264.796 444.157C267.086 443.652 269.226 443.86 271.218 444.811C273.24 445.763 274.742 447.621 275.738 450.401C277.239 454.801 278.607 459.276 279.841 463.84C281.06 468.434 282.13 472.849 283.052 477.101ZM184.876 429.291C181.694 432.829 178.454 436.546 175.124 440.47C171.823 444.395 168.731 448.082 165.847 451.531C163.9 453.82 161.536 454.891 158.771 454.742C156.035 454.578 153.686 453.686 151.754 452.066C149.569 450.163 148.186 447.904 147.591 445.287C146.997 442.715 147.77 440.292 149.91 438.032C153.032 434.39 156.333 430.748 159.782 427.091C163.231 423.449 166.739 419.94 170.307 416.566C172.522 414.47 174.826 413.503 177.205 413.652C179.613 413.771 181.977 414.871 184.281 416.922C186.065 418.632 187.076 420.594 187.314 422.809C187.552 425.039 186.734 427.195 184.876 429.291ZM257.304 456.823C257.542 459.588 257.601 462.621 257.482 465.921C257.363 469.251 256.739 472.358 255.639 475.257C254.568 478.141 252.814 480.579 250.406 482.571C247.983 484.549 244.638 485.574 240.356 485.664C236.551 485.783 231.883 485.262 226.382 484.118C220.911 483.003 215.441 481.561 209.97 479.777C204.529 477.993 199.4 475.986 194.568 473.771C189.767 471.541 186.02 469.37 183.33 467.23C180.119 464.568 178.245 461.357 177.74 457.596C177.22 453.865 177.502 450 178.572 446.001C179.673 442.002 181.382 438.062 183.686 434.167C186.02 430.243 188.325 426.764 190.584 423.701C191.417 422.72 192.205 421.784 192.963 420.907C193.751 420.044 194.687 419.301 195.758 418.706C196.858 418.112 198.077 417.785 199.385 417.695C200.693 417.621 202.239 417.918 204.023 418.587C205.807 419.271 207.264 420.178 208.424 421.323C209.568 422.482 210.386 423.672 210.862 424.891C211.367 426.125 211.531 427.373 211.337 428.637C211.174 429.915 210.654 431.06 209.791 432.086C208.558 433.483 207.234 435.342 205.807 437.676C204.41 439.98 203.131 442.254 201.942 444.514C200.783 446.729 199.876 448.751 199.207 450.579C198.567 452.393 198.285 453.612 198.374 454.207C198.493 454.876 199.222 455.634 200.574 456.466C201.957 457.299 203.696 458.146 205.807 459.023C207.948 459.93 210.297 460.807 212.884 461.64C215.5 462.472 218.116 463.201 220.733 463.84C223.379 464.509 225.921 465.059 228.344 465.505C230.753 465.981 232.864 466.234 234.648 466.278C235.673 466.234 236.446 465.773 236.967 464.91C237.517 464.078 237.874 463.067 238.037 461.878C238.186 460.718 238.23 459.499 238.156 458.191C238.067 456.883 237.888 455.753 237.621 454.801C237.502 453.805 237.68 452.854 238.156 451.947C238.661 451.07 239.405 450.342 240.356 449.747C241.337 449.152 242.556 448.706 243.984 448.439C245.44 448.201 246.957 448.275 248.503 448.677C251.982 449.464 254.271 450.535 255.341 451.888C256.441 453.226 257.096 454.876 257.304 456.823ZM289.355 388.677C289.98 384.633 288.939 381.749 286.204 379.995C283.468 378.211 278.369 377.081 270.921 376.605C266.402 376.412 262.135 376.724 258.136 377.557C256.62 382.121 255.371 386.09 254.39 389.45C252.963 395.366 252.101 400.302 251.833 404.256C251.595 408.226 251.803 411.437 252.487 413.89C253.156 416.313 254.286 418.112 255.877 419.301C257.452 420.49 259.296 421.263 261.407 421.62C265.168 422.215 268.364 422.007 270.981 420.966C273.597 419.896 275.976 417.918 278.116 415.02C275.455 414.707 272.883 414.484 270.386 414.365C267.918 414.247 265.629 414.217 263.488 414.247C260.351 414.098 258.285 413.206 257.304 411.571C256.352 409.95 256.025 408.107 256.352 406.04C256.664 403.944 257.556 402.279 259.028 401.045C260.485 399.826 262.715 399.41 265.688 399.797C268.26 400.034 271.174 400.436 274.43 400.986C277.67 401.506 281.06 402.101 284.598 402.77C284.628 402.577 284.717 402.354 284.836 402.116C284.984 401.848 285.089 401.625 285.133 401.462C281.64 399.797 278.176 398.31 274.727 397.002C271.308 395.694 268.097 394.623 265.094 393.791C261.912 392.839 260.113 391.412 259.682 389.509C259.236 387.577 259.444 385.733 260.277 383.979C261.258 382.046 262.611 380.679 264.321 379.876C266.015 379.088 268.32 379.266 271.218 380.411C273.79 381.452 276.645 382.701 279.781 384.157C282.903 385.585 286.099 387.101 289.355 388.677Z" fill="#D97C48"/>
<path d="M455.281 381.833C455.4 384.687 454.82 386.947 453.557 388.612C452.278 390.277 449.825 391.154 446.183 391.228C437.858 391.466 429.072 391.883 419.84 392.477C410.638 393.042 401.302 393.904 391.832 395.094C389.692 399.895 387.982 404.578 386.718 409.127C385.767 412.338 384.042 414.405 381.545 415.312C379.047 416.233 376.669 416.248 374.409 415.371C373.889 415.178 373.354 414.94 372.804 414.658C372.283 414.39 371.748 414.048 371.198 413.647C371.198 415.118 371.168 416.679 371.139 418.344C371.094 420.009 371.02 421.734 370.901 423.518C370.455 433.865 369.652 442.487 368.463 449.385C367.303 456.253 365.683 461.679 363.587 465.678C361.52 469.647 358.948 472.457 355.856 474.122C352.764 475.787 349.033 476.62 344.677 476.62C340.633 476.62 337.08 475.832 334.033 474.241C331.015 472.621 328.458 469.722 326.362 465.559C324.295 461.397 322.705 455.792 321.605 448.731C320.49 441.64 319.821 432.601 319.583 421.615C319.494 413.974 319.583 406.838 319.821 400.208C320.088 393.592 320.653 387.408 321.486 381.655C321.723 379.96 322.08 378.607 322.556 377.611C323.032 376.585 323.641 375.812 324.399 375.292C325.143 374.742 326.035 374.385 327.075 374.222C328.146 374.073 329.424 373.984 330.941 373.984C336.605 373.984 339.444 376.541 339.444 381.655C341.971 379.96 345.42 378.785 349.791 378.146C353.002 377.715 355.826 377.611 358.294 377.849C360.747 378.057 362.828 378.845 364.538 380.228C366.233 381.625 367.586 383.706 368.582 386.471C369.607 389.251 370.321 392.983 370.722 397.651C372.655 392.225 374.915 386.813 377.501 381.417C380.118 376.035 382.972 370.892 386.064 366.015C387.878 363.131 389.989 361.496 392.368 361.139C394.776 360.753 397.214 361.08 399.682 362.15C402.135 363.221 403.919 364.752 405.033 366.729C406.134 368.676 405.747 371.04 403.844 373.805C403.606 374.132 403.339 374.489 403.071 374.876C402.833 375.232 402.61 375.634 402.417 376.065C409.746 375.322 417.06 374.742 424.359 374.341C431.644 373.909 438.661 373.567 445.41 373.33C449.127 373.255 451.684 374.013 453.081 375.589C454.463 377.18 455.192 379.261 455.281 381.833ZM454.211 453.607C455.474 456.788 456.47 460.133 457.184 463.656C457.927 467.195 458.284 470.599 458.254 473.884C458.21 477.185 457.689 480.277 456.708 483.161C455.757 486.06 454.27 488.453 452.248 490.356C450.137 492.378 447.194 494.117 443.388 495.589C439.612 497.09 435.45 498.295 430.901 499.216C426.381 500.123 421.624 500.673 416.629 500.881C411.634 501.119 406.773 501 402.06 500.525C397.377 500.049 393.036 499.216 389.037 498.027C385.024 496.838 381.753 495.232 379.226 493.21C374.424 489.494 371.139 484.826 369.355 479.236C367.6 473.646 368.195 467.611 371.139 461.099C374.067 454.603 379.791 447.839 388.324 440.822C396.842 433.775 408.988 426.952 424.776 420.366C420.286 420.054 415.945 419.876 411.753 419.831C407.546 419.757 403.428 419.816 399.384 420.009C396.367 420.247 393.943 419.876 392.13 418.88C390.346 417.854 389.29 415.832 388.978 412.814C388.532 409.098 389.008 406.362 390.405 404.608C391.788 402.824 394.345 401.843 398.076 401.635C401.674 401.442 405.42 401.367 409.315 401.397C413.24 401.442 417.075 401.575 420.851 401.813C424.612 402.021 428.254 402.319 431.793 402.705C435.316 403.062 438.467 403.567 441.247 404.192C444.414 404.831 447.016 406.154 449.037 408.176C451.089 410.198 452.323 412.487 452.724 415.014C453.155 417.512 452.739 420.009 451.475 422.507C450.197 425.004 447.863 427.056 444.459 428.632C433.16 434.073 423.497 439.454 415.499 444.806C407.486 450.128 401.347 455.079 397.065 459.672C392.813 464.236 390.554 468.28 390.286 471.803C390.048 475.341 392.011 478.017 396.173 479.831C398.076 480.663 400.901 481.243 404.677 481.555C408.482 481.882 412.407 481.942 416.451 481.734C420.494 481.496 424.315 480.99 427.927 480.188C431.57 479.4 434.186 478.314 435.777 476.917C439.419 473.944 439.255 468.414 435.301 460.326C433.71 456.996 433.368 454.38 434.29 452.477C435.197 450.544 437.516 449.147 441.247 448.315C447.744 446.62 452.07 448.374 454.211 453.607ZM352.229 430.118C352.615 422.551 352.838 416.501 352.883 411.982C352.957 407.433 352.705 404.013 352.11 401.754C351.515 399.464 350.579 398.097 349.315 397.651C348.037 397.22 346.282 397.324 344.023 397.948C341.481 398.587 339.459 399.821 337.957 401.635C337.749 405.604 337.615 409.752 337.541 414.063C337.496 418.344 337.601 422.893 337.838 427.68C338.032 433.032 338.314 437.522 338.671 441.119C339.057 444.732 339.518 447.646 340.039 449.861C340.589 452.046 341.198 453.607 341.882 454.558C342.596 455.51 343.369 455.985 344.201 455.985C346.535 455.985 348.319 453.815 349.553 449.444C350.772 445.089 351.664 438.652 352.229 430.118Z" fill="#D97C48"/>
<path d="M611.86 391.025C612.648 394.206 612.782 397.016 612.276 399.469C611.801 401.937 609.957 403.572 606.746 404.404C597.544 406.753 587.866 409.4 577.727 412.373C567.574 415.316 557.45 418.438 547.341 421.768C537.232 425.098 527.272 428.532 517.49 432.056C507.693 435.549 498.476 438.998 489.839 442.402C488.129 443.086 486.657 443.339 485.379 443.175C484.115 443.027 482.985 442.551 481.989 441.748C481.008 440.96 480.19 439.949 479.551 438.716C478.882 437.452 478.273 436.144 477.708 434.791C476.563 431.862 476.325 429.082 476.994 426.466C477.633 423.849 479.551 421.932 482.762 420.698C491.399 417.293 500.616 413.844 510.413 410.351C520.195 406.828 530.156 403.423 540.265 400.123C550.403 396.838 560.542 393.701 570.651 390.728C580.76 387.725 590.408 385.019 599.61 382.64C602.851 381.853 605.527 382.313 607.638 384.008C609.734 385.673 611.146 388.022 611.86 391.025Z" fill="#D97C48"/>
<path d="M737.006 308.302C744.142 317.787 748.81 326.305 751.04 333.872C753.255 341.454 753.315 348.5 751.218 355.041C749.107 361.553 745.094 367.752 739.147 373.654C733.201 379.526 725.649 385.591 716.491 391.85C709.385 396.607 702.413 400.383 695.56 403.148C688.736 405.928 682.002 406.924 675.342 406.121C668.711 405.334 662.155 402.42 655.659 397.38C649.118 392.311 642.681 384.387 636.333 373.594C631.457 365.15 627.8 357.925 625.332 351.89C622.879 345.869 620.872 340.205 619.326 334.883C618.464 332.147 618.434 329.576 619.266 327.152C620.099 324.699 622.106 322.693 625.272 321.146C627.978 319.764 630.357 318.931 632.408 318.649C634.474 318.337 636.095 319.184 637.284 321.206C639.826 317.445 642.814 313.565 646.263 309.551C649.683 305.552 653.741 301.583 658.454 297.658C665.188 291.801 671.67 287.162 677.899 283.743C684.113 280.339 690.327 278.778 696.511 279.045C702.725 279.328 709.132 281.766 715.718 286.36C722.334 290.968 729.425 298.282 737.006 308.302ZM717.026 317.162C712.388 311.097 708.062 306.801 704.063 304.258C700.094 301.731 696.184 300.557 692.348 300.75C688.498 300.914 684.559 302.326 680.515 304.972C676.471 307.633 671.967 311.186 667.017 315.616C662.408 319.823 658.231 324.045 654.469 328.282C650.664 332.534 647.259 336.771 644.242 341.008C645.401 344.07 646.784 347.251 648.404 350.581C649.995 353.882 651.853 357.45 653.994 361.285C658.305 369.179 662.527 374.932 666.66 378.53C670.822 382.142 674.985 384.209 679.147 384.714C683.34 385.19 687.725 384.387 692.289 382.276C696.838 380.135 701.655 377.341 706.739 373.892C712.403 369.937 717.234 366.206 721.248 362.712C725.247 359.189 727.908 355.324 729.217 351.117C730.525 346.924 730.287 342.108 728.503 336.667C726.749 331.241 722.928 324.744 717.026 317.162Z" fill="#D97C48"/>
</svg>
