<svg width="304" height="286" viewBox="0 0 304 286" fill="none" xmlns="http://www.w3.org/2000/svg">
<path d="M63.8087 285.126L250.386 284.944L250.362 263.596L63.793 263.77L63.8087 285.126Z" fill="#D97C48"/>
<path d="M160.451 23.8345C187.818 23.8347 211.152 41.0951 220.167 65.3237C225.323 64.052 230.714 63.3765 236.263 63.3765C273.262 63.3765 303.256 93.3731 303.256 130.375C303.256 162.866 280.13 189.955 249.442 196.078V247.9H64.9355V196.318C47.106 185.027 35.2676 165.126 35.2676 142.459C35.2676 107.817 62.9174 79.6323 97.3506 78.7749C101.621 47.739 128.244 23.8345 160.451 23.8345ZM172.236 150.153C168.929 150.772 165.532 151.136 162.065 151.222C160.738 160.875 157.248 169.837 152.101 177.605H188.746C181.205 170.017 175.47 160.634 172.236 150.153Z" fill="#D97C48"/>
<path d="M158.058 1.00003C194.826 0.969283 226.067 24.7074 237.229 57.701C270.184 61.4216 295.813 89.3647 295.851 123.304C295.874 149.517 280.631 172.164 258.522 182.88L182.642 116.109C188.768 106.715 192.589 88.2577 183.902 78.5795C175.2 68.8859 157.274 50.5442 149.794 42.2113C148.825 41.135 146.25 39.5592 143.667 41.873C141.092 44.1946 142.376 46.9235 143.337 47.9997L176.646 85.0983C177.583 86.6819 178.967 90.2872 177.038 92.0245C175.1 93.7541 172.202 91.5094 170.995 90.1642L134.796 49.837C133.589 48.4917 130.368 46.5315 127.14 49.4219C123.911 52.32 125.525 55.7254 126.732 57.0707L165.822 100.626C166.721 101.618 168.02 103.909 166.667 105.623C164.823 106.784 162.686 105.239 161.786 104.239L122.689 60.6913C121.482 59.3538 118.269 57.3858 115.04 60.2762C111.811 63.1743 113.418 66.5874 114.625 67.9327L150.824 108.252C152.031 109.597 153.96 112.718 152.023 114.456C150.086 116.193 146.65 114.425 145.182 113.318L111.873 76.2195C110.904 75.1433 108.329 73.5751 105.746 75.889C103.171 78.2105 104.455 80.9395 105.423 82.008C112.903 90.3487 129.208 110.136 137.917 119.837C146.604 129.507 165.368 127.701 175.377 122.627L242.825 218.326L242.848 239.304L199.069 239.342L124.403 167.521C130.637 155.744 135.503 134.988 119.629 117.308C97.0519 92.1552 68.7706 91.4787 57.6395 100.173L57.6088 100.142C57.4781 100.265 57.3474 100.388 57.2167 100.511C57.0784 100.634 56.94 100.749 56.8016 100.865L56.8324 100.903C46.985 111.02 44.6097 139.193 67.1871 164.346C83.0151 181.98 104.109 179.444 116.508 174.547L164.446 239.381L59.6459 239.489L59.6151 205.411C26.1757 198.454 1.03847 168.851 1.00003 133.351C0.961596 92.6625 33.9321 59.6382 74.6437 59.5998C75.9044 59.5998 77.1574 59.6305 78.4027 59.692C88.9419 25.7222 120.606 1.03847 158.058 1.00003Z" fill="#FEF9EC"/>
<path d="M258.522 182.88C280.631 172.164 295.874 149.517 295.851 123.304C295.813 89.3647 270.184 61.4216 237.229 57.701C226.067 24.7074 194.826 0.969283 158.058 1.00003C120.606 1.03847 88.9419 25.7221 78.4027 59.692C77.1574 59.6305 75.9044 59.5998 74.6437 59.5998C33.9321 59.6382 0.961596 92.6625 1.00003 133.351C1.03847 168.851 26.1757 198.454 59.6151 205.411L59.6459 239.489L164.446 239.381" stroke="#D97C48" stroke-width="0.5"/>
<path d="M244.427 278.986L58.3496 279.167L58.335 258.31L244.404 258.137L244.427 278.986Z" fill="#FEF9EC" stroke="#D97C48" stroke-width="0.5"/>
</svg>
